<svg width="1440" height="1852" viewBox="0 0 1440 1852" fill="none" xmlns="http://www.w3.org/2000/svg">
<g clip-path="url(#clip0_959_408)">
<rect width="1440" height="1852" fill="#FBF9F9"/>
<path d="M828 647C452.8 452.2 118.333 293.333 -2 449.5V1427.5C9.33333 1384.33 110.7 1364.5 399.5 1154.5C688.3 944.5 1210.67 1219.67 1439 1443V589C1391.67 620.833 1203.2 841.8 828 647Z" fill="#02A9F1" fill-opacity="0.6"/>
<path opacity="0.6" d="M828 736.293C452.8 612.045 118.333 510.716 -2 610.323V1234.11C9.33333 1206.58 110.7 1193.93 399.5 1059.99C688.3 926.045 1210.67 1101.55 1439 1244V699.299C1391.67 719.603 1203.2 860.541 828 736.293Z" fill="#02A9F1" fill-opacity="0.6"/>
</g>
<defs>
<clipPath id="clip0_959_408">
<rect width="1440" height="1852" fill="white"/>
</clipPath>
</defs>
</svg>
